<?xml version="1.0" encoding="utf-8"?>
<!-- Generator: Adobe Illustrator 24.2.3, SVG Export Plug-In . SVG Version: 6.00 Build 0)  -->
<svg version="1.1" id="palomino" xmlns="http://www.w3.org/2000/svg" xmlns:xlink="http://www.w3.org/1999/xlink" x="0px" y="0px"
	 viewBox="0 0 312.93 324.2" style="enable-background:new 0 0 312.93 324.2;" xml:space="preserve">
<style type="text/css">
	.st0{fill:#0071BC;}
	.st1{fill:#FFFFFF;stroke:#29ABE2;stroke-width:6;stroke-linecap:round;stroke-linejoin:round;stroke-miterlimit:10;}
	.st2{fill:none;stroke:#29ABE2;stroke-width:6;stroke-linecap:square;stroke-linejoin:round;stroke-miterlimit:10;}
</style>
<g>
	<path class="st0" d="M35.2,153H28c-4.99,0-9.24-2.11-12.74-6.34c-3.5-4.22-5.26-9.31-5.26-15.26c0-5.95,1.75-11.04,5.26-15.26
		c3.5-4.22,7.75-6.34,12.74-6.34h7.2V153z M28,145.8V117c-2.98,0-5.52,1.4-7.63,4.21c-2.11,2.81-3.17,6.2-3.17,10.19
		c0,3.98,1.06,7.38,3.17,10.19C22.48,144.4,25.02,145.8,28,145.8z"/>
	<path class="st0" d="M56.8,153c-4.99,0-9.24-2.11-12.74-6.34c-3.5-4.22-5.26-9.31-5.26-15.26c0-5.95,1.75-11.04,5.26-15.26
		c3.5-4.22,7.75-6.34,12.74-6.34v7.2c-2.98,0-5.52,1.4-7.63,4.21c-2.11,2.81-3.17,6.2-3.17,10.19c0,3.98,1.06,7.38,3.17,10.19
		c2.11,2.81,4.66,4.21,7.63,4.21V153z"/>
	<path class="st0" d="M103.6,153h-7.2v-21.6c0-3.98-1.06-7.38-3.17-10.19c-2.11-2.81-4.66-4.21-7.63-4.21v36h-7.2v-21.6
		c0-3.98-1.06-7.38-3.17-10.19c-2.11-2.81-4.66-4.21-7.63-4.21v36h-7.2v-43.2h7.2c3.98,0,7.58,1.44,10.8,4.32v-4.32h7.2
		c4.99,0,9.24,2.11,12.74,6.34c3.5,4.22,5.26,9.31,5.26,15.26V153z"/>
	<path class="st0" d="M132.4,153h-7.2c-4.99,0-9.24-2.11-12.74-6.34c-3.5-4.22-5.26-9.31-5.26-15.26c0-5.95,1.75-11.04,5.26-15.26
		c3.5-4.22,7.75-6.34,12.74-6.34h7.2V135h-17.64c0.58,3.12,1.84,5.7,3.78,7.74c1.94,2.04,4.16,3.06,6.66,3.06h7.2V153z M125.2,127.8
		V117c-2.5,0-4.72,1.02-6.66,3.06c-1.94,2.04-3.2,4.62-3.78,7.74H125.2z"/>
	<path class="st0" d="M56.2,213H49c-4.99,0-9.24-2.11-12.74-6.34c-3.5-4.22-5.26-9.31-5.26-15.26c0-5.95,1.75-11.04,5.26-15.26
		c3.5-4.22,7.75-6.34,12.74-6.34h7.2V213z M49,205.8V177c-2.98,0-5.52,1.4-7.63,4.21c-2.11,2.81-3.17,6.2-3.17,10.19
		c0,3.98,1.06,7.38,3.17,10.19C43.48,204.4,46.02,205.8,49,205.8z"/>
	<path class="st0" d="M67.72,162.6c0,1.2-0.42,2.22-1.26,3.06c-0.84,0.84-1.86,1.26-3.06,1.26c-1.2,0-2.22-0.42-3.06-1.26
		c-0.84-0.84-1.26-1.86-1.26-3.06c0-1.2,0.42-2.22,1.26-3.06c0.84-0.84,1.86-1.26,3.06-1.26c1.2,0,2.22,0.42,3.06,1.26
		C67.3,160.38,67.72,161.4,67.72,162.6z M67,213h-7.2v-43.2H67V213z"/>
	<path class="st0" d="M88.6,177c-2.98,0-5.52,1.4-7.63,4.21c-2.11,2.81-3.17,6.2-3.17,10.19V213h-7.2v-21.6
		c0-5.95,1.75-11.04,5.26-15.26c3.5-4.22,7.75-6.34,12.74-6.34V177z"/>
	<path class="st0" d="M108.04,213c-4.99,0-9.24-2.11-12.74-6.34c-3.5-4.22-5.26-9.31-5.26-15.26c0-5.95,1.75-11.04,5.26-15.26
		c3.5-4.22,7.75-6.34,12.74-6.34v7.2c-2.98,0-5.52,1.4-7.63,4.21c-2.11,2.81-3.17,6.2-3.17,10.19c0,3.98,1.06,7.38,3.17,10.19
		c2.11,2.81,4.66,4.21,7.63,4.21V213z"/>
	<path class="st0" d="M129.64,177c-2.98,0-5.52,1.4-7.63,4.21c-2.11,2.81-3.17,6.2-3.17,10.19V213h-7.2v-21.6
		c0-5.95,1.75-11.04,5.26-15.26c3.5-4.22,7.75-6.34,12.74-6.34V177z"/>
	<path class="st0" d="M154.84,213h-7.2c-4.99,0-9.24-2.11-12.74-6.34c-3.5-4.22-5.26-9.31-5.26-15.26c0-5.95,1.75-11.04,5.26-15.26
		c3.5-4.22,7.75-6.34,12.74-6.34h7.2V213z M147.64,205.8V177c-2.98,0-5.52,1.4-7.63,4.21c-2.11,2.81-3.17,6.2-3.17,10.19
		c0,3.98,1.06,7.38,3.17,10.19C142.12,204.4,144.66,205.8,147.64,205.8z"/>
	<path class="st0" d="M176.43,195h-10.8v18h-7.2v-32.4c0-5.95,1.75-11.04,5.26-15.26c3.5-4.22,7.75-6.34,12.74-6.34v7.2
		c-2.98,0-5.52,1.4-7.63,4.21c-2.11,2.81-3.17,6.2-3.17,10.19v7.2h10.8V195z"/>
	<path class="st0" d="M201.63,177h-7.2v36h-7.2v-36h-7.2v-7.2h7.2V159h7.2v10.8h7.2V177z"/>
</g>
<path class="st1" d="M180.22,139.67c3.07-7.27,10.27-12.37,18.66-12.37c3.38,0,6.56,0.83,9.36,2.29"/>
<path class="st1" d="M208.11,129.65c4.76-5.66,11.89-9.25,19.86-9.25c9.58,0,17.94,5.19,22.44,12.91"/>
<path class="st1" d="M269.67,139.45c-2.05-4.85-6.85-8.25-12.44-8.25c-2.48,0-4.8,0.67-6.8,1.83"/>
<line class="st2" x1="272.93" y1="140" x2="299.93" y2="140"/>
<line class="st2" x1="138.93" y1="140" x2="177.93" y2="140"/>
<line class="st2" x1="138.93" y1="150" x2="299.93" y2="150"/>
<path class="st1" d="M250.18,133.3"/>
</svg>
